<svg width="170" height="60" xmlns="http://www.w3.org/2000/svg">
 <!-- Generator: Sketch 50.2 (55047) - http://www.bohemiancoding.com/sketch -->
 <title>logo-icon</title>
 <desc>Created with Sketch.</desc>

 <g>
  <title>background</title>
  <rect fill="none" id="canvas_background" height="62" width="172" y="-1" x="-1"/>
 </g>
 <g>
  <title>Layer 1</title>
  <g fill-rule="evenodd" fill="none" id="Tracker">
   <g fill="#FFFFFF" id="Transactions-">
    <g id="GNB">
     <g id="logo">
      <path id="Tracker" d="m77.112,30.200001l7.994003,0l0,1.665998l-3.052002,0l0,8.134001l-1.889999,0l0,-8.134001l-3.052002,0l0,-1.665998zm10.1745,3.751999c0.251999,-0.48534 0.595001,-0.856331 1.028999,-1.112999c0.433998,-0.256672 0.940331,-0.389671 1.519005,-0.399002l0,1.764c-0.774673,-0.046669 -1.39299,0.133003 -1.855003,0.539001c-0.462013,0.405998 -0.693001,0.95433 -0.693001,1.645l0,3.612l-1.82,0l0,-7.490002l1.82,0l0,1.442001zm7.542503,6.048l0,-0.91c-0.26133,0.326672 -0.597336,0.574001 -1.008003,0.742001c-0.410667,0.167999 -0.881996,0.251999 -1.414001,0.251999c-0.522667,0 -0.98233,-0.10033 -1.378998,-0.300999c-0.396667,-0.200672 -0.702332,-0.478333 -0.917,-0.833c-0.214668,-0.354671 -0.321999,-0.751331 -0.321999,-1.190002c0,-0.699997 0.24733,-1.248329 0.741997,-1.644997c0.494675,-0.396671 1.194664,-0.599663 2.099998,-0.609001l2.184006,0l0,-0.195999c0,-0.438671 -0.144676,-0.779331 -0.434006,-1.022003c-0.28933,-0.242668 -0.709328,-0.363998 -1.259995,-0.363998c-0.709335,0 -1.451332,0.23333 -2.226006,0.700001l-0.657997,-1.260002c0.587997,-0.326668 1.12233,-0.562328 1.602997,-0.706997c0.480675,-0.144672 1.043007,-0.217003 1.687004,-0.217003c0.970673,0 1.724327,0.23333 2.261002,0.700001c0.536667,0.466671 0.809654,1.119991 0.819,1.959999l0.014,4.900002l-1.792,0zm-1.987999,-1.316002c0.522667,0 0.970665,-0.123669 1.343994,-0.370998c0.373329,-0.24733 0.583336,-0.553001 0.630005,-0.917l0,-0.672001l-1.889999,0c-0.485336,0 -0.842346,0.07233 -1.071007,0.217003c-0.228653,0.144669 -0.342995,0.380329 -0.342995,0.706997c0,0.317341 0.118996,0.569332 0.356995,0.756001c0.238007,0.186672 0.562332,0.279999 0.973007,0.279999zm10.538498,-3.807999c-0.503998,-0.550671 -1.157333,-0.826 -1.959999,-0.826c-0.606674,0 -1.098999,0.20533 -1.477005,0.616001c-0.377998,0.410671 -0.566994,0.942661 -0.566994,1.596001c0,0.671997 0.188995,1.213329 0.566994,1.624001c0.378006,0.410667 0.870331,0.615997 1.477005,0.615997c0.896011,0 1.568001,-0.293999 2.015999,-0.882l1.134003,0.938c-0.336006,0.485332 -0.779335,0.858662 -1.330002,1.120003c-0.550674,0.26133 -1.189995,0.391998 -1.917999,0.391998c-0.737343,0 -1.393005,-0.158669 -1.967003,-0.475998c-0.574013,-0.317341 -1.019669,-0.763 -1.336998,-1.337002c-0.317345,-0.574001 -0.476006,-1.234329 -0.476006,-1.980999c0,-0.756001 0.161003,-1.423332 0.483002,-2.002003c0.321999,-0.578667 0.769989,-1.026669 1.344002,-1.343998c0.573997,-0.317341 1.234329,-0.476002 1.981003,-0.476002c0.681335,0 1.290329,0.119003 1.826996,0.357002c0.536674,0.237999 0.973,0.576328 1.308998,1.014999l-1.105995,1.049999zm7.374496,5.124001l-2.029999,-3.276001l-1.148003,1.204002l0,2.071999l-1.82,0l0,-10.388l1.82,0l0,6.02l3.080002,-3.108002l2.099998,0l-2.771996,2.884003l2.940002,4.591999l-2.170006,0zm5.722504,-7.546001c1.194672,0 2.093002,0.34066 2.695,1.022003c0.602013,0.681339 0.903,1.637989 0.903,2.869999c0,0.242668 -0.004669,0.42466 -0.014,0.545998l-5.529999,0c0.12133,0.532001 0.370995,0.949661 0.749001,1.253002c0.377998,0.303329 0.842331,0.454998 1.392998,0.454998c0.382668,0 0.749001,-0.072327 1.098999,-0.216999c0.350014,-0.144669 0.655663,-0.352329 0.917,-0.623001l0.980003,1.022003c-0.373329,0.410667 -0.828331,0.727997 -1.365005,0.952c-0.536667,0.223999 -1.13166,0.335999 -1.784996,0.335999c-0.765335,0 -1.439674,-0.158669 -2.023003,-0.475998c-0.583336,-0.317341 -1.033661,-0.763 -1.350998,-1.337002c-0.317337,-0.574001 -0.475998,-1.234329 -0.475998,-1.980999c0,-0.74667 0.160995,-1.409332 0.482994,-1.988003c0.322006,-0.578667 0.772331,-1.028999 1.351006,-1.350998c0.578667,-0.321999 1.236664,-0.483002 1.973999,-0.483002zm1.931999,3.220001c-0.018669,-0.550671 -0.200668,-0.98933 -0.545998,-1.315998c-0.345329,-0.326672 -0.802666,-0.490002 -1.372002,-0.490002c-0.531998,0 -0.977669,0.160999 -1.336998,0.483002c-0.359337,0.321999 -0.581001,0.762997 -0.665001,1.322998l3.919998,0zm4.616501,-1.722c0.251999,-0.48534 0.595001,-0.856331 1.028999,-1.112999c0.433998,-0.256672 0.940331,-0.389671 1.518997,-0.399002l0,1.764c-0.774666,-0.046669 -1.392998,0.133003 -1.854996,0.539001c-0.462006,0.405998 -0.693001,0.95433 -0.693001,1.645l0,3.612l-1.82,0l0,-7.490002l1.82,0l0,1.442001z"/>
      <path id="svg_1" d="m53.2453,30.213051l0,9.528339c-0.00069,0.02636 0.00959,0.051891 0.028549,0.070839c0.01894,0.018959 0.044971,0.029762 0.072239,0.02998l3.40078,0c0.056282,-0.001369 0.100891,-0.046379 0.099922,-0.100819l0,-9.55834c-0.02673,-1.33075 0.4963,-2.616871 1.453178,-3.573391c0.95689,-0.95652 2.26862,-1.50445 3.644562,-1.522388c2.765606,0.09272 4.946232,2.308599 4.905636,4.98497l0,9.66498c-0.000687,0.026218 0.009476,0.05162 0.028244,0.070549c0.018761,0.01894 0.044571,0.029831 0.071693,0.03027l3.401634,0c0.026962,-0.00066 0.052551,-0.01165 0.071129,-0.03056c0.01857,-0.018909 0.028625,-0.044178 0.027931,-0.070259l0,-9.66498c0.035126,-2.26478 -0.871696,-4.448301 -2.516815,-6.06023c-1.645126,-1.611931 -3.890656,-2.51717 -6.232372,-2.51244c-4.797401,0.201359 -8.551582,4.06971 -8.45631,8.71348zm-51.363239,10.45734c-0.096992,-0.005371 -0.187813,-0.04781 -0.25243,-0.117981c-0.064632,-0.07016 -0.097771,-0.1623 -0.092133,-0.256119l0,-13.805931c-0.005867,-0.09387 0.02718,-0.186131 0.091862,-0.25635c0.064671,-0.070221 0.155621,-0.1126 0.252701,-0.11775l2.763359,0c0.09708,0.00515 0.18803,0.047529 0.252701,0.11775c0.064671,0.070219 0.097729,0.162479 0.09185,0.25635l0,13.805931c0.00565,0.093819 -0.027493,0.185959 -0.092121,0.256119c-0.064621,0.070171 -0.155441,0.11261 -0.25243,0.117981l-2.763359,0zm2.53215,-16.277151c-0.918301,0.374229 -1.979321,0.17547 -2.686783,-0.503309c-0.70747,-0.678782 -0.921528,-1.703411 -0.542068,-2.59465c0.379459,-0.89123 1.277431,-1.472891 2.273922,-1.472921c0.649647,-0.002659 1.273769,0.244471 1.734997,0.687012c0.461231,0.44253 0.721771,1.044199 0.724281,1.672579c0.00803,0.96382 -0.58604,1.837061 -1.504349,2.21129zm20.2974,0.68903c0.055939,-0.00045 0.10117,-0.044199 0.101639,-0.09831l0,-3.391079c0.000481,-0.054901 -0.044889,-0.099901 -0.101639,-0.100811l-5.872131,0c-5.189199,-0.007179 -9.432268,3.99959 -9.549417,9.017591c-0.055012,2.44858 0.908989,4.815928 2.675537,6.570539c1.76656,1.75462 4.187653,2.749458 6.71969,2.761169l6.02976,0c0.056749,-0.000908 0.102131,-0.045921 0.10165,-0.100819l0,-3.388573c0.000231,-0.026299 -0.010361,-0.051598 -0.029421,-0.070358c-0.019058,-0.018749 -0.045038,-0.0294 -0.072229,-0.029621l-6.02976,0c-1.551889,-0.007309 -3.034788,-0.621281 -4.111521,-1.702297c-1.076736,-1.08102 -1.655807,-2.537231 -1.60556,-4.037542c0.11293,-3.035759 2.695404,-5.437439 5.835951,-5.427389l5.907452,-0.002501zm24.389318,-1.525379c-1.289028,-0.029671 -2.313919,-1.056131 -2.299728,-2.303221c0.01421,-1.247099 1.062229,-2.251471 2.35162,-2.25367c0.636879,0.00985 1.24353,0.264469 1.68602,0.70764c0.442501,0.443161 0.68446,1.03845 0.67247,1.654449c-0.047142,1.246342 -1.121349,2.22447 -2.410381,2.194801zm-19.394468,19.442469c-1.29006,-0.029259 -2.315722,-1.056908 -2.300522,-2.304977c0.015202,-1.248081 1.065601,-2.252083 2.35602,-2.25193c1.322971,0.02372 2.376282,1.07906 2.354191,2.358749c-0.045288,1.247398 -1.119619,2.227421 -2.409689,2.198158zm4.19364,-8.286259c-0.708271,-1.086769 -1.08342,-2.345531 -1.081909,-3.630201c-0.060982,-3.609959 2.909378,-6.587019 6.641357,-6.65634c1.291012,0.00157 2.551651,0.37899 3.617851,1.083141l2.564369,-2.569551c-1.758011,-1.35783 -3.94025,-2.098629 -6.18998,-2.101299c-5.748291,0.099871 -10.32452,4.688141 -10.22131,10.248211c-0.004009,2.230341 0.731779,4.403101 2.09922,6.198919l2.5704,-2.57288zm11.117161,-7.26124c0.709389,1.086639 1.0849,2.3459 1.082779,3.631039c0.06094,3.612223 -2.913841,6.58988 -6.648251,6.654673c-1.290989,-0.001781 -2.551571,-0.379181 -3.617859,-1.083141l-2.563511,2.56955c1.755169,1.357491 3.934101,2.099659 6.18137,2.105461c2.760731,-0.04752 5.388851,-1.153992 7.30608,-3.075951c1.91724,-1.921959 2.966511,-4.501942 2.91695,-7.17226c0.005009,-2.23061 -0.72987,-4.40394 -2.09663,-6.20059l-2.560928,2.57122z"/>
     </g>
    </g>
   </g>
  </g>
  <text font-weight="bold" xml:space="preserve" text-anchor="start" font-family="'Trebuchet MS', Gadget, sans-serif" font-size="10" id="svg_3" y="28.030931" x="127.981099" stroke-width="0" stroke="#000" fill="#ffffff">(t-bears)</text>
 </g>
</svg>