<svg width="170" height="60" xmlns="http://www.w3.org/2000/svg">
 <!-- Generator: Sketch 50.2 (55047) - http://www.bohemiancoding.com/sketch -->
 <title>logo-icon</title>
 <desc>Created with Sketch.</desc>

 <g>
  <title>background</title>
  <rect fill="none" id="canvas_background" height="62" width="172" y="-1" x="-1"/>
 </g>
 <g>
  <title>Layer 1</title>
  <g fill-rule="evenodd" fill="none" id="Tracker">
   <g fill="#FFFFFF" id="Transactions-">
    <g id="GNB">
     <g id="logo">
      <path id="svg_1" d="m53.2453,30.213051l0,9.528339c-0.00069,0.02636 0.00959,0.051891 0.028549,0.070839c0.01894,0.018959 0.044971,0.029762 0.072239,0.02998l3.40078,0c0.056282,-0.001369 0.100891,-0.046379 0.099922,-0.100819l0,-9.55834c-0.02673,-1.33075 0.4963,-2.616871 1.453178,-3.573391c0.95689,-0.95652 2.26862,-1.50445 3.644562,-1.522388c2.765606,0.09272 4.946232,2.308599 4.905636,4.98497l0,9.66498c-0.000687,0.026218 0.009476,0.05162 0.028244,0.070549c0.018761,0.01894 0.044571,0.029831 0.071693,0.03027l3.401634,0c0.026962,-0.00066 0.052551,-0.01165 0.071129,-0.03056c0.01857,-0.018909 0.028625,-0.044178 0.027931,-0.070259l0,-9.66498c0.035126,-2.26478 -0.871696,-4.448301 -2.516815,-6.06023c-1.645126,-1.611931 -3.890656,-2.51717 -6.232372,-2.51244c-4.797401,0.201359 -8.551582,4.06971 -8.45631,8.71348zm-51.363239,10.45734c-0.096992,-0.005371 -0.187813,-0.04781 -0.25243,-0.117981c-0.064632,-0.07016 -0.097771,-0.1623 -0.092133,-0.256119l0,-13.805931c-0.005867,-0.09387 0.02718,-0.186131 0.091862,-0.25635c0.064671,-0.070221 0.155621,-0.1126 0.252701,-0.11775l2.763359,0c0.09708,0.00515 0.18803,0.047529 0.252701,0.11775c0.064671,0.070219 0.097729,0.162479 0.09185,0.25635l0,13.805931c0.00565,0.093819 -0.027493,0.185959 -0.092121,0.256119c-0.064621,0.070171 -0.155441,0.11261 -0.25243,0.117981l-2.763359,0zm2.53215,-16.277151c-0.918301,0.374229 -1.979321,0.17547 -2.686783,-0.503309c-0.70747,-0.678782 -0.921528,-1.703411 -0.542068,-2.59465c0.379459,-0.89123 1.277431,-1.472891 2.273922,-1.472921c0.649647,-0.002659 1.273769,0.244471 1.734997,0.687012c0.461231,0.44253 0.721771,1.044199 0.724281,1.672579c0.00803,0.96382 -0.58604,1.837061 -1.504349,2.21129zm20.2974,0.68903c0.055939,-0.00045 0.10117,-0.044199 0.101639,-0.09831l0,-3.391079c0.000481,-0.054901 -0.044889,-0.099901 -0.101639,-0.100811l-5.872131,0c-5.189199,-0.007179 -9.432268,3.99959 -9.549417,9.017591c-0.055012,2.44858 0.908989,4.815928 2.675537,6.570539c1.76656,1.75462 4.187653,2.749458 6.71969,2.761169l6.02976,0c0.056749,-0.000908 0.102131,-0.045921 0.10165,-0.100819l0,-3.388573c0.000231,-0.026299 -0.010361,-0.051598 -0.029421,-0.070358c-0.019058,-0.018749 -0.045038,-0.0294 -0.072229,-0.029621l-6.02976,0c-1.551889,-0.007309 -3.034788,-0.621281 -4.111521,-1.702297c-1.076736,-1.08102 -1.655807,-2.537231 -1.60556,-4.037542c0.11293,-3.035759 2.695404,-5.437439 5.835951,-5.427389l5.907452,-0.002501zm24.389318,-1.525379c-1.289028,-0.029671 -2.313919,-1.056131 -2.299728,-2.303221c0.01421,-1.247099 1.062229,-2.251471 2.35162,-2.25367c0.636879,0.00985 1.24353,0.264469 1.68602,0.70764c0.442501,0.443161 0.68446,1.03845 0.67247,1.654449c-0.047142,1.246342 -1.121349,2.22447 -2.410381,2.194801zm-19.394468,19.442469c-1.29006,-0.029259 -2.315722,-1.056908 -2.300522,-2.304977c0.015202,-1.248081 1.065601,-2.252083 2.35602,-2.25193c1.322971,0.02372 2.376282,1.07906 2.354191,2.358749c-0.045288,1.247398 -1.119619,2.227421 -2.409689,2.198158zm4.19364,-8.286259c-0.708271,-1.086769 -1.08342,-2.345531 -1.081909,-3.630201c-0.060982,-3.609959 2.909378,-6.587019 6.641357,-6.65634c1.291012,0.00157 2.551651,0.37899 3.617851,1.083141l2.564369,-2.569551c-1.758011,-1.35783 -3.94025,-2.098629 -6.18998,-2.101299c-5.748291,0.099871 -10.32452,4.688141 -10.22131,10.248211c-0.004009,2.230341 0.731779,4.403101 2.09922,6.198919l2.5704,-2.57288zm11.117161,-7.26124c0.709389,1.086639 1.0849,2.3459 1.082779,3.631039c0.06094,3.612223 -2.913841,6.58988 -6.648251,6.654673c-1.290989,-0.001781 -2.551571,-0.379181 -3.617859,-1.083141l-2.563511,2.56955c1.755169,1.357491 3.934101,2.099659 6.18137,2.105461c2.760731,-0.04752 5.388851,-1.153992 7.30608,-3.075951c1.91724,-1.921959 2.966511,-4.501942 2.91695,-7.17226c0.005009,-2.23061 -0.72987,-4.40394 -2.09663,-6.20059l-2.560928,2.57122z"/>
     </g>
    </g>
   </g>
  </g>
  <text font-weight="bold" xml:space="preserve" text-anchor="start" font-family="'Trebuchet MS', Gadget, sans-serif" font-size="10" id="svg_3" y="28.030931" x="77.981099" stroke-width="0" stroke="#000" fill="#ffffff">(Tracker)</text>
 </g>
</svg>